<?xml version="1.0" standalone="no"?>
<!DOCTYPE svg PUBLIC "-//W3C//DTD SVG 20010904//EN"
 "http://www.w3.org/TR/2001/REC-SVG-20010904/DTD/svg10.dtd">
<svg version="1.0" xmlns="http://www.w3.org/2000/svg"
 width="278.000000pt" height="278.000000pt" viewBox="0 0 278.000000 278.000000"
 preserveAspectRatio="xMidYMid meet">
<metadata>
Created by potrace 1.14, written by Peter Selinger 2001-2017
</metadata>
<g transform="translate(0.000000,278.000000) scale(0.100000,-0.100000)"
fill="#000000" stroke="none">
<path d="M1860 2668 c-19 -5 -44 -10 -55 -12 -58 -10 -105 -28 -99 -38 4 -6 3
-8 -4 -5 -12 8 -103 -28 -117 -47 -5 -7 -23 -19 -40 -27 -34 -16 -98 -106 -91
-126 3 -7 0 -12 -7 -10 -6 1 -19 -13 -28 -31 -23 -45 -20 -44 -70 -26 -31 11
-62 14 -106 10 -53 -6 -62 -4 -66 11 -4 14 -5 13 -6 -4 0 -13 -5 -23 -10 -23
-5 0 -8 8 -7 17 2 24 -36 28 -278 28 l-209 0 -10 -29 c-7 -20 -6 -30 3 -36 9
-6 9 -9 -1 -13 -18 -7 25 -47 51 -47 10 0 20 -6 23 -14 5 -12 34 -28 267 -140
52 -25 109 -57 125 -72 18 -15 22 -22 10 -16 -11 5 -31 6 -45 1 l-25 -7 24 -1
c13 -1 21 -4 18 -8 -6 -5 -17 -8 -60 -12 -5 -1 -5 -7 -1 -13 6 -10 5 -10 -7
-1 -12 10 -18 9 -30 -5 -26 -29 -75 -69 -100 -82 -42 -21 -111 -102 -105 -123
2 -10 2 -16 -1 -13 -7 6 -93 -83 -93 -96 0 -3 -25 -37 -55 -73 -30 -37 -55
-72 -55 -77 0 -5 -13 -38 -29 -73 -50 -108 -78 -258 -50 -267 7 -2 5 -13 -5
-32 -9 -18 -13 -46 -10 -73 5 -51 11 -66 26 -57 5 4 5 -4 -2 -16 -10 -19 -10
-22 2 -17 19 7 44 -8 29 -17 -6 -4 -11 -3 -11 3 0 6 -7 8 -15 5 -8 -4 -12 -10
-9 -15 3 -5 -13 -25 -36 -46 -22 -20 -40 -43 -40 -50 0 -7 -7 -13 -15 -13 -9
0 -18 -6 -21 -14 -3 -7 -38 -43 -79 -79 -95 -84 -148 -142 -119 -133 12 3 28
0 40 -9 18 -14 17 -15 -18 -9 -28 5 -40 2 -55 -13 -26 -28 -54 -83 -47 -94 3
-5 0 -9 -5 -9 -22 0 -70 -97 -72 -145 -2 -35 5 -95 11 -95 4 0 5 -11 3 -24 -4
-20 0 -24 33 -31 23 -4 33 -10 25 -14 -8 -5 0 -16 26 -34 44 -30 172 -52 249
-43 68 8 124 25 124 37 0 6 7 9 15 6 8 -4 17 -2 21 4 3 6 31 22 62 36 32 14
59 29 62 33 3 3 13 9 23 13 10 4 16 11 13 16 -3 5 7 11 22 15 15 3 63 39 107
80 44 42 85 75 90 76 6 0 4 -4 -3 -9 -10 -6 -9 -10 7 -14 12 -3 19 -2 17 1 -2
4 7 8 20 8 23 2 24 1 7 -12 -10 -8 -13 -13 -8 -12 6 1 20 -3 32 -10 19 -10 23
-10 23 0 0 10 2 11 8 0 5 -7 23 -16 40 -22 18 -5 30 -5 27 0 -3 5 3 8 14 7 10
0 17 -6 15 -12 -2 -5 9 -10 26 -10 16 0 30 5 30 10 0 6 5 2 11 -7 12 -21 69
-25 69 -5 0 8 3 9 8 1 7 -11 66 -13 76 -3 4 4 25 4 48 2 26 -4 38 -2 34 5 -3
6 -1 14 5 18 7 4 9 3 5 -4 -3 -6 -2 -13 4 -17 5 -3 10 2 10 11 0 16 1 16 20
-1 11 -10 20 -13 20 -7 0 5 8 9 17 8 9 -2 28 3 42 10 14 6 40 11 58 10 24 -2
30 1 25 12 -3 10 -1 13 7 8 6 -4 17 -3 24 2 7 6 26 12 42 15 17 2 58 16 92 30
34 14 64 22 67 19 3 -3 6 0 6 6 0 9 31 25 52 27 4 0 13 6 19 12 7 7 21 13 30
13 9 0 19 6 22 13 2 7 26 23 51 37 26 13 54 35 62 49 9 14 36 39 60 54 28 18
46 38 50 55 8 35 33 63 48 55 6 -3 8 -3 4 1 -7 9 33 52 45 48 4 -1 7 4 7 10 0
7 21 33 48 58 48 47 118 154 115 178 0 7 2 11 5 8 3 -3 17 11 30 32 14 20 30
40 36 44 11 8 -5 12 -31 9 -7 -1 -13 3 -13 8 0 5 10 8 23 6 18 -4 25 2 34 26
7 17 9 38 6 47 -3 12 -2 13 4 5 6 -9 12 -7 21 7 9 14 9 20 1 20 -8 0 -9 4 0
13 6 8 8 17 4 20 -3 4 2 27 11 52 10 25 18 66 19 92 1 27 6 54 10 61 5 7 2 14
-8 18 -14 6 -14 9 -2 23 13 16 16 126 3 138 -10 10 -7 35 4 28 6 -4 9 3 7 16
-2 13 -9 25 -14 26 -21 7 -1 43 23 43 13 0 28 8 33 18 12 23 10 105 -3 115 -7
5 -6 10 4 17 13 9 7 14 -12 11 -5 0 -8 4 -8 9 0 6 7 10 15 10 12 0 13 9 8 48
-3 26 -10 48 -14 50 -4 2 -5 10 -2 18 3 8 1 20 -5 27 -5 6 -12 24 -16 40 -3
15 -11 27 -16 27 -6 0 -10 9 -10 20 0 11 -4 20 -9 20 -5 0 -17 23 -26 50 -9
28 -21 50 -26 50 -6 0 -8 4 -4 9 8 15 -56 83 -72 77 -8 -3 -11 -1 -8 4 3 6 -1
10 -10 10 -11 0 -15 5 -11 15 3 9 0 15 -10 15 -8 0 -13 4 -10 8 3 5 -14 19
-37 32 -23 13 -61 38 -84 56 -23 18 -56 35 -72 39 -17 4 -33 11 -36 16 -4 5
-19 9 -34 9 -15 0 -31 3 -35 8 -4 4 -11 7 -14 8 -8 1 -59 22 -85 36 -21 11
-156 8 -207 -4z m124 -103 c-4 -8 -11 -12 -16 -9 -6 4 -5 10 3 15 19 12 19 11
13 -6z m-504 -170 c0 -8 -7 -15 -15 -15 -13 0 -14 3 -3 15 16 18 18 18 18 0z
m737 9 c-3 -3 -12 -4 -19 -1 -8 3 -5 6 6 6 11 1 17 -2 13 -5z m-562 -44 c3 -5
1 -10 -4 -10 -6 0 -11 5 -11 10 0 6 2 10 4 10 3 0 8 -4 11 -10z m715 -99 c0
-10 -26 -9 -36 2 -4 4 2 7 14 7 12 0 22 -4 22 -9z m226 -38 c-10 -10 -19 5
-10 18 6 11 8 11 12 0 2 -7 1 -15 -2 -18z m-311 -13 c3 -5 -1 -10 -10 -10 -9
0 -13 5 -10 10 3 6 8 10 10 10 2 0 7 -4 10 -10z m5 -90 c0 -5 -4 -10 -10 -10
-5 0 -10 5 -10 10 0 6 5 10 10 10 6 0 10 -4 10 -10z m-1409 -333 c-10 -9 -11
-8 -5 6 3 10 9 15 12 12 3 -3 0 -11 -7 -18z m-211 -307 c0 -5 -5 -10 -11 -10
-5 0 -7 5 -4 10 3 6 8 10 11 10 2 0 4 -4 4 -10z m0 -34 c0 -3 -4 -8 -10 -11
-5 -3 -10 -1 -10 4 0 6 5 11 10 11 6 0 10 -2 10 -4z m-67 -153 c-3 -7 -6 -13
-8 -13 -2 0 -5 6 -8 13 -3 8 1 14 8 14 7 0 11 -6 8 -14z m-28 -62 c1 -12 -3
-17 -12 -14 -9 4 -10 9 -3 18 5 6 8 15 5 18 -3 4 -2 5 2 2 4 -3 7 -14 8 -24z
m-10 -105 c-8 -13 -12 -26 -8 -29 3 -4 1 -7 -6 -7 -7 0 -11 6 -8 13 20 49 20
50 7 42 -8 -5 -11 -4 -6 3 4 6 13 9 21 6 12 -5 12 -9 0 -28z m-4 -203 c-12
-21 -49 -56 -71 -67 -9 -4 -8 -2 3 7 9 8 17 19 17 26 0 6 7 11 15 11 8 0 19 9
25 20 6 11 13 20 16 20 2 0 0 -8 -5 -17z m446 -490 c-4 -3 1 -12 11 -20 16
-13 15 -13 -3 -5 -11 5 -26 7 -32 5 -7 -3 -13 0 -13 7 0 6 4 9 9 5 5 -3 12 -1
16 5 3 5 9 10 12 10 4 0 3 -3 0 -7z m83 -15 c0 -6 -3 -8 -7 -5 -3 4 -13 1 -22
-6 -14 -11 -14 -10 -2 6 15 20 31 22 31 5z m120 -42 c0 -5 -8 -2 -17 6 -10 9
-25 13 -33 11 -13 -4 -13 -3 -1 5 15 11 51 -5 51 -22z m327 9 c-15 -16 -19
-13 -11 9 3 9 10 13 15 10 5 -3 3 -11 -4 -19z m-89 -12 c-8 -10 -14 -11 -16
-4 -2 6 -8 9 -13 5 -5 -3 -9 -1 -9 4 0 5 11 10 25 10 21 0 23 -3 13 -15z m-63
-13 c3 -5 1 -10 -4 -10 -6 0 -11 5 -11 10 0 6 2 10 4 10 3 0 8 -4 11 -10z
m-122 -18 c4 9 6 9 6 1 2 -20 -16 -24 -30 -5 -13 15 -12 16 3 4 13 -10 17 -10
21 0z m-1166 -58 c-3 -3 -12 -4 -19 -1 -8 3 -5 6 6 6 11 1 17 -2 13 -5z"/>
<path d="M1197 2369 c7 -7 15 -10 18 -7 3 3 -2 9 -12 12 -14 6 -15 5 -6 -5z"/>
</g>
</svg>
